<?xml version="1.0" encoding="UTF-8" standalone="no"?>
<svg
   xmlns:dc="http://purl.org/dc/elements/1.1/"
   xmlns:cc="http://creativecommons.org/ns#"
   xmlns:rdf="http://www.w3.org/1999/02/22-rdf-syntax-ns#"
   xmlns:svg="http://www.w3.org/2000/svg"
   xmlns="http://www.w3.org/2000/svg"
   id="svg5324"
   version="1.1"
   viewBox="0 0 383.42868 94.619125"
   height="268.2117pt"
   width="1086.8844pt">
  <defs
     id="defs5318">
    <clipPath
       id="p594bf549dd">
      <rect
         id="rect409"
         y="79.199997"
         x="54"
         width="334.79999"
         height="613.79999" />
    </clipPath>
    <clipPath
       id="clipPath6004">
      <rect
         id="rect6002"
         y="79.199997"
         x="54"
         width="334.79999"
         height="613.79999" />
    </clipPath>
    <clipPath
       id="clipPath6008">
      <rect
         id="rect6006"
         y="79.199997"
         x="54"
         width="334.79999"
         height="613.79999" />
    </clipPath>
    <clipPath
       id="clipPath6012">
      <rect
         id="rect6010"
         y="79.199997"
         x="54"
         width="334.79999"
         height="613.79999" />
    </clipPath>
  </defs>
  <metadata
     id="metadata5321">
    <rdf:RDF>
      <cc:Work
         rdf:about="">
        <dc:format>image/svg+xml</dc:format>
        <dc:type
           rdf:resource="http://purl.org/dc/dcmitype/StillImage" />
        <dc:title></dc:title>
      </cc:Work>
    </rdf:RDF>
  </metadata>
  <g
     transform="translate(112.8949,-84.647825)"
     id="layer1">
    <path
       d="M -3.1761205,132.87628 H -36.007268 q 0.364791,7.56941 4.742278,11.6733 4.468683,4.10389 10.031738,4.10389 5.563056,0 9.484555,-2.37114 4.012695,-2.37114 5.3806595,-4.65107 0.729581,-0.91198 1.6415574,-0.2736 l 2.4623359,2.46234 q 0.5471858,0.54718 0.5471858,1.00318 0,0.36478 -0.4559881,1.00316 -0.3647905,0.63839 -1.6415573,2.00636 -1.2767669,1.36796 -3.6479053,3.10071 -2.2799408,1.73276 -6.0190429,2.91833 -3.647906,1.18556 -7.842998,1.18556 -9.57575,0 -16.050782,-6.29263 -6.383834,-6.29263 -6.383834,-16.87157 0,-10.67012 6.383834,-16.78036 6.383834,-6.20144 15.594795,-6.20144 9.302158,0 14.5916208,6.01905 5.2894625,5.92784 5.2894625,16.05078 0,0.36479 0,0.72958 0,1.18557 -1.2767668,1.18557 z m -6.2926365,-5.56305 q -0.2735929,-5.65426 -3.556707,-9.02857 -3.283116,-3.37431 -8.754973,-3.37431 -5.471858,0 -9.393357,3.10072 -3.921497,3.10072 -4.651078,9.30216 z"
       style="font-style:normal;font-variant:normal;font-weight:normal;font-stretch:normal;font-size:98.77777863px;line-height:6.61458302px;font-family:Sanchez;-inkscape-font-specification:Sanchez;letter-spacing:-5.54831266px;word-spacing:0px;fill:#212121;fill-opacity:1;stroke:none;stroke-width:0.24427935px;stroke-linecap:butt;stroke-linejoin:miter;stroke-opacity:1"
       id="path4528" />
    <path
       d="m 48.618636,154.39892 h -8.663775 q -3.921498,0 -3.921498,-3.8303 v -23.98498 q 0,-5.28946 -2.553533,-8.20778 -2.553535,-2.91833 -7.478206,-2.91833 -7.022218,0 -10.943717,5.74545 -0.455987,0.54719 -1.185569,2.00636 v 25.07934 h 4.833475 q 1.18557,0 1.18557,1.09437 v 3.9215 q 0,1.09437 -1.18557,1.09437 H 1.2870658 q -1.1855692,0 -1.1855692,-1.09437 v -3.9215 q 0,-1.09437 1.1855692,-1.09437 H 6.3029349 V 115.63993 H 1.2870658 q -1.1855692,0 -1.1855692,-1.09437 v -3.92151 q 0,-1.09436 1.1855692,-1.09436 H 11.957188 q 1.18557,0 1.18557,1.09436 l -0.182396,6.20145 h 0.273594 q 4.742276,-7.9342 14.682817,-7.9342 7.295812,0 11.399705,4.28629 4.103893,4.2863 4.19509,11.58211 v 23.52898 h 5.107068 q 1.18557,0 1.18557,1.09437 v 3.9215 q 0,1.09437 -1.18557,1.09437 z"
       style="font-style:normal;font-variant:normal;font-weight:normal;font-stretch:normal;font-size:98.77777863px;line-height:6.61458302px;font-family:Sanchez;-inkscape-font-specification:Sanchez;letter-spacing:-5.54831266px;word-spacing:0px;fill:#212121;fill-opacity:1;stroke:none;stroke-width:0.24427935px;stroke-linecap:butt;stroke-linejoin:miter;stroke-opacity:1"
       id="path4530" />
    <path
       d="m 70.815489,175.73917 q -4.559882,0 -6.93102,-0.63839 -2.279941,-0.63838 -3.739103,-1.18556 -1.367964,-0.45599 -2.371138,-1.00318 -1.003175,-0.45599 -1.915151,-1.00317 -4.012695,-2.64474 -3.009522,-3.83031 l 2.371139,-3.37431 q 0.547185,-0.82078 1.550359,-0.0912 0.0912,0 0.547187,0.36479 0.547185,0.45599 1.003173,0.82078 0.547186,0.36479 1.367965,0.82078 0.911977,0.54718 2.006348,0.91198 1.094371,0.45598 2.371138,0.82077 3.009522,0.82079 6.657427,0.82079 6.56623,0 10.487728,-3.19193 4.012695,-3.10071 4.012695,-9.84934 v -10.39652 q -1.641557,3.83029 -5.471857,6.56622 -3.739103,2.73592 -9.393356,2.73592 -9.302159,0 -14.956411,-6.47502 -5.563056,-6.47503 -5.563056,-16.78036 0,-10.30534 5.654253,-16.59798 5.74545,-6.29264 14.865214,-6.29264 5.654253,0 9.484553,2.64474 3.921499,2.55354 5.654254,6.29264 h 0.182395 l -0.0912,-7.20462 q 0,-1.09437 1.09437,-1.09437 h 10.761314 q 1.094382,0 1.094382,1.09437 v 3.9215 q 0,1.09437 -1.094382,1.09437 h -4.92467 v 40.49175 q 0,9.75815 -6.01904,14.68283 -5.927847,4.92466 -15.685993,4.92466 z M 57.31824,131.9643 q 0,7.47822 4.012695,12.1293 4.012696,4.55987 10.031739,4.55987 6.019045,0 9.940542,-4.55987 4.012697,-4.55989 4.012697,-12.2205 0,-7.66059 -4.012697,-12.12927 -3.921497,-4.46869 -9.940542,-4.46869 -6.019043,0 -10.031739,4.55988 -4.012695,4.55989 -4.012695,12.12928 z"
       style="font-style:normal;font-variant:normal;font-weight:normal;font-stretch:normal;font-size:98.77777863px;line-height:6.61458302px;font-family:Sanchez;-inkscape-font-specification:Sanchez;letter-spacing:-5.54831266px;word-spacing:0px;fill:#212121;fill-opacity:1;stroke:none;stroke-width:0.24427935px;stroke-linecap:butt;stroke-linejoin:miter;stroke-opacity:1"
       id="path4532" />
    <path
       d="m 137.54243,148.65347 q -6.38383,6.38383 -16.32437,6.38383 -9.94055,0 -16.32438,-6.29263 -6.383845,-6.38384 -6.383845,-16.87157 0,-10.57892 6.475045,-16.78036 6.47503,-6.20144 16.23318,-6.20144 9.84934,0 16.23316,6.29264 6.47505,6.20145 6.47505,16.68916 0,10.39654 -6.38384,16.78037 z M 106.17045,131.8731 q 0,7.47821 4.37748,12.12929 4.37749,4.65108 10.67013,4.65108 6.38383,0 10.76132,-4.65108 4.37748,-4.65108 4.37748,-12.12929 0,-7.47819 -4.46868,-12.03808 -4.37748,-4.55988 -10.57893,-4.55988 -6.20144,0 -10.67012,4.55988 -4.46868,4.55989 -4.46868,12.03808 z"
       style="font-style:normal;font-variant:normal;font-weight:normal;font-stretch:normal;font-size:98.77777863px;line-height:6.61458302px;font-family:Sanchez;-inkscape-font-specification:Sanchez;letter-spacing:-5.54831266px;word-spacing:0px;fill:#212121;fill-opacity:1;stroke:none;stroke-width:0.24427935px;stroke-linecap:butt;stroke-linejoin:miter;stroke-opacity:1"
       id="path4534" />
    <path
       id="path4566"
       d="m -74.624023,136.95886 -0.684712,-0.25787 c -0.004,-10e-4 -0.0081,-0.003 -0.01188,-0.004 l -0.760161,-0.28371 c -0.003,-10e-4 -0.0068,-0.003 -0.0098,-0.004 l -0.760161,-0.28009 c -0.003,-0.001 -0.0073,-0.003 -0.01035,-0.004 l -0.760162,-0.27646 c -0.003,-10e-4 -0.0048,-0.003 -0.0078,-0.004 l -0.760158,-0.2744 c -0.003,-0.001 -0.0073,-0.003 -0.01035,-0.004 l -0.760158,-0.27233 c -0.003,-8e-4 -0.0048,-0.001 -0.0078,-0.002 l -0.760162,-0.27026 c -0.003,-0.001 -0.0053,-0.003 -0.0083,-0.004 l -0.760158,-0.26665 c -0.0021,-0.001 -0.0042,-0.003 -0.0062,-0.004 l -0.760161,-0.26458 c -0.003,-8e-4 -0.0048,-0.001 -0.0078,-0.002 l -0.760158,-0.26458 c -0.0021,-8e-4 -0.0042,-10e-4 -0.0062,-0.002 l -0.760162,-0.26252 c -0.003,-7.9e-4 -0.0053,-0.001 -0.0083,-0.002 l -0.760159,-0.25839 c -0.002,-7.9e-4 -0.0037,-0.001 -0.0057,-0.002 l -0.760161,-0.25839 c -0.002,-7.9e-4 -0.0042,-0.001 -0.0062,-0.002 l -0.76016,-0.25684 -0.0041,-0.002 -0.760161,-0.25477 c -0.002,-7.9e-4 -0.0037,-0.001 -0.0057,-0.002 l -0.760677,-0.2527 c -0.002,-8e-4 -0.0037,-0.001 -0.0057,-0.002 l -0.760161,-0.25063 -0.0041,-0.002 -0.76016,-0.24856 c -0.002,-7.9e-4 -0.0042,-0.001 -0.0062,-0.002 l -0.760161,-0.24908 -0.0041,-0.002 -0.76016,-0.24702 -0.0036,-0.002 -0.760161,-0.24495 c -0.002,-7.9e-4 -0.0042,-0.001 -0.0062,-0.002 l -0.760161,-0.24494 -0.0041,-0.002 -0.76016,-0.24288 -0.0041,-0.002 -0.76016,-0.24081 -0.0041,-0.002 -0.131258,-0.0413 v 6.50968 l 0.526583,0.17053 0.753959,0.24288 0.756543,0.2465 0.754476,0.24701 0.756026,0.24908 0.754476,0.24856 0.754476,0.25063 0.753959,0.25322 0.754476,0.25425 0.754476,0.25683 0.754476,0.25683 0.751892,0.25838 0.754476,0.26252 0.752409,0.26251 0.752409,0.26459 0.752408,0.26872 0.750343,0.2682 0.752409,0.27233 0.750342,0.2744 0.750343,0.27647 0.748789,0.28009 0.750342,0.28215 0.746207,0.28577 0.748792,0.28836 0.74621,0.29197 0.744657,0.29765 0.744656,0.29973 0.74259,0.3054 0.740524,0.30955 0.738458,0.31574 0.736904,0.32143 0.732771,0.32711 0.730705,0.33486 0.727089,0.34313 0.720886,0.35244 0.7152,0.36277 0.709002,0.37207 0.697632,0.38809 0.683678,0.40152 0.662493,0.4191 0.634587,0.4408 0.58601,0.45682 0.49971,0.46405 0.07648,0.0925 1.984891,4.34961 -2.041736,-5.80947 -0.380339,-0.6935 -0.601514,-0.85265 -0.646472,-0.79531 -0.671793,-0.75447 -0.691947,-0.71882 -0.705384,-0.69143 -0.713134,-0.67025 -0.71882,-0.65267 -0.725019,-0.63458 -0.729155,-0.62116 -0.734322,-0.60926 -0.734838,-0.5979 -0.738973,-0.58962 -0.738457,-0.57775 -0.742591,-0.57206 -0.74259,-0.5643 -0.744656,-0.55863 -0.744141,-0.55035 z"
       style="color:#000000;font-style:normal;font-variant:normal;font-weight:normal;font-stretch:normal;font-size:medium;line-height:normal;font-family:sans-serif;font-variant-ligatures:normal;font-variant-position:normal;font-variant-caps:normal;font-variant-numeric:normal;font-variant-alternates:normal;font-feature-settings:normal;text-indent:0;text-align:start;text-decoration:none;text-decoration-line:none;text-decoration-style:solid;text-decoration-color:#000000;letter-spacing:normal;word-spacing:normal;text-transform:none;writing-mode:lr-tb;direction:ltr;text-orientation:mixed;dominant-baseline:auto;baseline-shift:baseline;text-anchor:start;white-space:normal;shape-padding:0;clip-rule:nonzero;display:inline;overflow:visible;visibility:visible;opacity:1;isolation:auto;mix-blend-mode:normal;color-interpolation:sRGB;color-interpolation-filters:linearRGB;solid-color:#000000;solid-opacity:1;vector-effect:none;fill:#ff6600;fill-opacity:1;fill-rule:nonzero;stroke:none;stroke-width:6.19988155;stroke-linecap:butt;stroke-linejoin:round;stroke-miterlimit:100;stroke-dasharray:none;stroke-dashoffset:0;stroke-opacity:1;color-rendering:auto;image-rendering:auto;shape-rendering:auto;text-rendering:auto;enable-background:accumulate" />
    <path
       id="path4571"
       d="m -77.599551,127.30053 -0.108002,-0.0729 c -0.003,-0.002 -0.0048,-0.004 -0.0078,-0.006 l -0.760161,-0.51108 c -0.003,-0.002 -0.0073,-0.004 -0.01035,-0.006 l -0.760161,-0.50746 c -0.003,-0.002 -0.0047,-0.004 -0.0078,-0.006 l -0.760161,-0.50126 c -0.003,-0.002 -0.0073,-0.004 -0.01035,-0.006 l -0.760161,-0.49971 c -0.003,-0.002 -0.0048,-0.004 -0.0078,-0.006 l -0.760159,-0.49557 c -0.003,-0.001 -0.0053,-0.003 -0.0083,-0.004 l -0.760161,-0.49403 c -0.003,-0.001 -0.0053,-0.003 -0.0083,-0.004 l -0.758092,-0.48989 c -0.003,-0.002 -0.0048,-0.004 -0.0078,-0.006 l -0.760161,-0.48575 c -0.003,-0.001 -0.0053,-0.003 -0.0083,-0.004 l -0.76016,-0.48369 c -0.003,-0.001 -0.0048,-0.003 -0.0078,-0.004 l -0.75861,-0.48214 c -0.003,-10e-4 -0.0048,-0.003 -0.0078,-0.004 l -0.76016,-0.47801 c -0.003,-10e-4 -0.0053,-0.003 -0.0083,-0.004 l -0.758094,-0.47439 c -0.003,-0.001 -0.0053,-0.003 -0.0083,-0.004 l -0.76016,-0.47181 c -0.002,-10e-4 -0.0037,-0.003 -0.0057,-0.004 l -0.76016,-0.47026 c -0.002,-0.001 -0.0042,-0.003 -0.0062,-0.004 l -0.76016,-0.46611 c -0.003,-0.001 -0.0053,-0.003 -0.0083,-0.004 l -0.760161,-0.46457 c -0.002,-0.001 -0.0037,-0.003 -0.0057,-0.004 l -0.756543,-0.45889 c -0.002,-0.001 -0.0042,-0.003 -0.0062,-0.004 l -0.76016,-0.45837 c -0.002,-0.001 -0.0042,-0.003 -0.0062,-0.004 l -0.76016,-0.45837 c -0.002,-7.9e-4 -0.0037,-0.001 -0.0057,-0.002 l -0.76016,-0.45475 c -0.002,-0.001 -0.0042,-0.003 -0.0062,-0.004 l -0.02274,-0.0135 v 7.23988 l 0.618567,0.37723 0.754476,0.4625 0.752409,0.46613 0.753959,0.46818 0.752409,0.47026 0.754476,0.47232 0.752409,0.47594 0.752409,0.48008 0.752408,0.48007 0.752409,0.48576 0.752409,0.48783 0.752409,0.48989 0.751892,0.49403 0.750857,0.49764 0.752409,0.50126 0.750342,0.50384 0.750343,0.50747 0.750339,0.51108 0.750343,0.51728 0.748276,0.51935 0.748792,0.52503 0.748273,0.52917 0.748274,0.53485 0.746725,0.53898 0.746726,0.54467 0.744141,0.55036 0.744656,0.55862 0.74259,0.5643 0.74259,0.57206 0.738458,0.57775 0.738973,0.58962 0.734838,0.5979 0.734322,0.60927 0.729154,0.62115 0.72502,0.63458 0.71882,0.65268 0.713134,0.67024 0.705384,0.69143 0.691946,0.71882 0.671793,0.75448 0.646473,0.7953 0.601514,0.85266 0.380339,0.6935 2.037085,5.79706 -2.064991,-6.93085 -0.527098,-1.25625 -0.662492,-1.26556 -0.689364,-1.16788 -0.707451,-1.09916 -0.715201,-1.05007 -0.725022,-1.01079 -0.728636,-0.98185 -0.732771,-0.95601 -0.736907,-0.93483 -0.738457,-0.91467 -0.740521,-0.89969 -0.742593,-0.88315 -0.74259,-0.8723 -0.746723,-0.85628 -0.744657,-0.84646 -0.74621,-0.83612 -0.746723,-0.82683 -0.748276,-0.81545 -0.748273,-0.80925 -0.748792,-0.79943 -0.748276,-0.79117 z"
       style="color:#000000;font-style:normal;font-variant:normal;font-weight:normal;font-stretch:normal;font-size:medium;line-height:normal;font-family:sans-serif;font-variant-ligatures:normal;font-variant-position:normal;font-variant-caps:normal;font-variant-numeric:normal;font-variant-alternates:normal;font-feature-settings:normal;text-indent:0;text-align:start;text-decoration:none;text-decoration-line:none;text-decoration-style:solid;text-decoration-color:#000000;letter-spacing:normal;word-spacing:normal;text-transform:none;writing-mode:lr-tb;direction:ltr;text-orientation:mixed;dominant-baseline:auto;baseline-shift:baseline;text-anchor:start;white-space:normal;shape-padding:0;clip-rule:nonzero;display:inline;overflow:visible;visibility:visible;opacity:1;isolation:auto;mix-blend-mode:normal;color-interpolation:sRGB;color-interpolation-filters:linearRGB;solid-color:#000000;solid-opacity:1;vector-effect:none;fill:#ff6600;fill-opacity:1;fill-rule:nonzero;stroke:none;stroke-width:6.19988155;stroke-linecap:butt;stroke-linejoin:round;stroke-miterlimit:100;stroke-dasharray:none;stroke-dashoffset:0;stroke-opacity:1;color-rendering:auto;image-rendering:auto;shape-rendering:auto;text-rendering:auto;enable-background:accumulate" />
    <path
       id="path4533"
       d="m -93.082843,112.45648 0.179317,0.15865 0.752409,0.67024 0.750342,0.67593 0.752409,0.67954 0.752409,0.6842 0.752408,0.68936 0.751893,0.6935 0.750858,0.6997 0.752409,0.70538 0.751892,0.709 0.750859,0.7152 0.752408,0.71934 0.750342,0.72657 0.750342,0.73122 0.752409,0.73846 0.750342,0.74259 0.750342,0.75034 0.75034,0.75447 0.750343,0.76378 0.750342,0.76843 0.748792,0.77566 0.75034,0.78394 0.748276,0.79116 0.748792,0.79944 0.748273,0.80925 0.748276,0.81545 0.746723,0.82683 0.74621,0.83612 0.744657,0.84646 0.746723,0.85628 0.74259,0.8723 0.742593,0.88315 0.740521,0.89968 0.738457,0.91468 0.736907,0.93482 0.732771,0.95602 0.728636,0.98185 0.725022,1.01079 0.715201,1.05007 0.707451,1.09916 0.689364,1.16788 0.662492,1.26556 0.527098,1.25625 2.069126,6.94376 -2.086694,-8.15092 -0.621152,-1.90634 -0.703315,-1.78698 -0.721405,-1.64382 -0.728636,-1.54978 -0.734838,-1.48518 -0.738458,-1.43195 -0.74259,-1.38958 -0.74259,-1.35547 -0.744659,-1.32447 -0.746723,-1.29915 -0.746207,-1.27382 -0.748276,-1.25367 -0.748792,-1.23042 -0.748274,-1.21491 -0.750342,-1.19527 -0.748792,-1.17926 -0.75034,-1.16375 -0.748276,-1.14826 -0.750342,-1.13429 -0.75034,-1.12086 -0.01447,-0.0227 -0.546737,-0.54519 c -0.003,-0.003 -0.0053,-0.007 -0.0083,-0.01 l -0.760159,-0.75241 -0.0098,-0.0104 -0.760161,-0.74621 c -0.003,-0.003 -0.0073,-0.005 -0.01035,-0.008 l -0.758095,-0.74052 -0.0098,-0.01 -0.760159,-0.73277 c -0.003,-0.003 -0.0053,-0.007 -0.0083,-0.0104 l -0.760161,-0.72864 c -0.003,-0.003 -0.0068,-0.005 -0.0098,-0.008 l -0.760161,-0.72295 -0.0083,-0.008 -0.760158,-0.71726 -0.0083,-0.008 -0.760162,-0.71314 -0.0078,-0.008 -0.76016,-0.70745 c -0.003,-0.003 -0.0073,-0.005 -0.01033,-0.008 l -0.758093,-0.70125 c -0.003,-0.003 -0.0073,-0.005 -0.01033,-0.008 l -0.76016,-0.69556 -0.0078,-0.008 -0.76016,-0.69143 -0.0083,-0.008 -0.76016,-0.68781 c -0.003,-0.002 -0.0047,-0.004 -0.0078,-0.006 l -0.76016,-0.68213 -0.0088,-0.008 -0.760161,-0.678 c -0.003,-0.002 -0.0053,-0.004 -0.0083,-0.006 l -0.76016,-0.67386 -0.0078,-0.008 -0.75861,-0.66766 c -0.003,-0.002 -0.0047,-0.004 -0.0078,-0.006 l -0.76016,-0.66405 c -0.003,-0.002 -0.0053,-0.004 -0.0083,-0.006 l -0.760161,-0.66042 -0.0078,-0.008 -0.76016,-0.65474 c -0.003,-0.002 -0.0053,-0.004 -0.0083,-0.006 l -0.448035,-0.38447 z"
       style="color:#000000;font-style:normal;font-variant:normal;font-weight:normal;font-stretch:normal;font-size:medium;line-height:normal;font-family:sans-serif;font-variant-ligatures:normal;font-variant-position:normal;font-variant-caps:normal;font-variant-numeric:normal;font-variant-alternates:normal;font-feature-settings:normal;text-indent:0;text-align:start;text-decoration:none;text-decoration-line:none;text-decoration-style:solid;text-decoration-color:#000000;letter-spacing:normal;word-spacing:normal;text-transform:none;writing-mode:lr-tb;direction:ltr;text-orientation:mixed;dominant-baseline:auto;baseline-shift:baseline;text-anchor:start;white-space:normal;shape-padding:0;clip-rule:nonzero;display:inline;overflow:visible;visibility:visible;opacity:1;isolation:auto;mix-blend-mode:normal;color-interpolation:sRGB;color-interpolation-filters:linearRGB;solid-color:#000000;solid-opacity:1;vector-effect:none;fill:#ff6600;fill-opacity:1;fill-rule:nonzero;stroke:none;stroke-width:6.19988155;stroke-linecap:butt;stroke-linejoin:round;stroke-miterlimit:100;stroke-dasharray:none;stroke-dashoffset:0;stroke-opacity:1;color-rendering:auto;image-rendering:auto;shape-rendering:auto;text-rendering:auto;enable-background:accumulate" />
    <path
       id="path4546"
       d="m -108.16461,88.17579 c -0.80188,0 -1.20251,0.370337 -1.20251,1.110527 v 4.718575 c 0,0.74019 0.40063,1.11001 1.20251,1.11001 h 7.03213 V 147.6688 h -7.03213 c -0.80188,0 -1.20251,0.37034 -1.20251,1.11053 v 4.71857 c 0,0.74019 0.40063,1.11001 1.20251,1.11001 h 22.20588 c 0.801876,0 1.203027,-0.36982 1.203027,-1.11001 v -4.71857 c 0,-0.74019 -0.401151,-1.11053 -1.203027,-1.11053 h -7.124113 v -45.52177 -4.487581 l 0.618567,0.736389 0.750342,0.905372 0.750342,0.91312 0.752408,0.92088 0.750342,0.92862 0.752409,0.93845 0.750342,0.94826 0.750859,0.95601 0.751892,0.96583 0.750858,0.97617 0.750342,0.9834 0.752409,0.99529 0.750341,1.00511 0.750342,1.01492 0.752409,1.02475 0.750342,1.03663 0.750343,1.048 0.75034,1.05781 0.750342,1.07022 0.752409,1.08314 0.750342,1.09347 0.750859,1.10898 0.750342,1.12086 0.75034,1.1343 0.748276,1.14825 0.750343,1.16375 0.748789,1.17926 0.750342,1.19527 0.748276,1.21492 0.748792,1.23041 0.748274,1.25367 0.746207,1.27383 0.746725,1.29914 0.744657,1.32447 0.74259,1.35547 0.74259,1.38958 0.738458,1.43196 0.734837,1.48518 0.728639,1.54977 0.721402,1.64383 0.703316,1.78697 0.621152,1.90634 2.086694,8.15093 h 1.228865 1.850533 4.996077 c 0.801878,0 1.203029,-0.37034 1.203029,-1.11053 V 95.115418 h 7.124112 c 0.740193,0 1.110525,-0.370336 1.110525,-1.110526 v -4.718575 c 0,-0.74019 -0.370332,-1.110527 -1.110525,-1.110527 h -22.297863 c -0.740193,0 -1.110528,0.370337 -1.110528,1.110527 v 4.718575 c 0,0.74019 0.370335,1.110526 1.110528,1.110526 h 7.124112 v 42.836142 l -0.492476,-1.04748 c -0.009,-0.0191 -0.01804,-0.0379 -0.02739,-0.0568 l -0.760162,-1.53428 c -0.008,-0.015 -0.01534,-0.0301 -0.02326,-0.045 l -0.760162,-1.47537 c -0.006,-0.0124 -0.01302,-0.0249 -0.01963,-0.0372 l -0.760158,-1.42421 c -0.006,-0.0111 -0.01217,-0.0226 -0.0181,-0.0336 l -0.760161,-1.38493 c -0.005,-0.01 -0.01027,-0.0198 -0.0155,-0.0295 l -0.760162,-1.35185 c -0.005,-0.008 -0.0092,-0.0173 -0.01394,-0.0258 l -0.760161,-1.3224 c -0.005,-0.007 -0.0087,-0.0145 -0.01344,-0.0217 l -0.760153,-1.29708 c -0.004,-0.007 -0.0081,-0.014 -0.01188,-0.0212 l -0.760161,-1.27382 c -0.004,-0.007 -0.0081,-0.0131 -0.01188,-0.0196 l -0.760161,-1.25161 c -0.004,-0.006 -0.0081,-0.0122 -0.01188,-0.0181 l -0.760161,-1.23248 c -0.004,-0.006 -0.0081,-0.0116 -0.01188,-0.0176 l -0.760161,-1.21284 c -0.003,-0.006 -0.0068,-0.0116 -0.0098,-0.0176 l -0.760161,-1.19527 c -0.003,-0.006 -0.0073,-0.0117 -0.01035,-0.0176 l -0.760161,-1.17926 c -0.003,-0.005 -0.0068,-0.0107 -0.0098,-0.016 l -0.760161,-1.16376 c -0.003,-0.005 -0.0073,-0.0102 -0.01035,-0.0155 l -0.760161,-1.15032 c -0.003,-0.005 -0.0068,-0.009 -0.0098,-0.0134 l -0.760159,-1.13637 c -0.003,-0.005 -0.0073,-0.009 -0.01035,-0.0139 l -0.760161,-1.12086 c -0.003,-0.005 -0.0068,-0.009 -0.0098,-0.0134 l -0.760161,-1.10898 c -0.003,-0.005 -0.0073,-0.009 -0.01035,-0.0139 l -0.760161,-1.09709 c -0.003,-0.004 -0.0068,-0.008 -0.0098,-0.0119 l -0.758093,-1.0852 c -0.003,-0.004 -0.0073,-0.008 -0.01035,-0.0119 l -0.760161,-1.07177 c -0.003,-0.005 -0.0068,-0.009 -0.0098,-0.0134 l -0.760161,-1.05989 c -0.003,-0.004 -0.0053,-0.008 -0.0083,-0.0119 l -0.760159,-1.05007 c -0.003,-0.004 -0.0068,-0.008 -0.0098,-0.0119 l -0.760158,-1.03819 c -0.003,-0.004 -0.0073,-0.008 -0.01035,-0.0119 l -0.760161,-1.02888 c -0.003,-0.004 -0.0048,-0.008 -0.0078,-0.0114 l -0.760677,-1.01699 c -0.003,-0.004 -0.0068,-0.008 -0.0098,-0.0119 l -0.760158,-1.00666 c -0.003,-0.004 -0.0053,-0.008 -0.0083,-0.0119 l -0.760161,-0.99529 c -0.003,-0.004 -0.0068,-0.008 -0.0098,-0.0119 l -0.760162,-0.98754 c -0.003,-0.004 -0.0053,-0.008 -0.0083,-0.0114 l -0.760158,-0.97772 c -0.003,-0.004 -0.0068,-0.008 -0.0098,-0.0119 l -0.760161,-0.9679 c -0.003,-0.003 -0.0053,-0.007 -0.0083,-0.01 l -0.76016,-0.960149 -0.0098,-0.0098 -0.76016,-0.95033 c -0.003,-0.004 -0.0053,-0.0081 -0.0083,-0.01189 l -0.76016,-0.940511 -0.0098,-0.0098 -0.76016,-0.932759 c -0.003,-0.004 -0.0053,-0.0081 -0.0083,-0.01189 l -0.760161,-0.922941 -0.0098,-0.0098 -0.760161,-0.91519 c -0.003,-0.004 -0.0053,-0.0076 -0.0083,-0.01137 l -0.76016,-0.907438 -0.0098,-0.0098 -0.75861,-0.89917 -0.0098,-0.01033 -0.76016,-0.889352 c -0.003,-0.004 -0.0053,-0.0081 -0.0083,-0.01188 l -0.760161,-0.8816 -0.0098,-0.0098 -0.760161,-0.875915 c -0.003,-0.003 -0.0053,-0.0073 -0.0083,-0.01034 l -0.760196,-0.867649 -0.0098,-0.01033 c -0.251043,-0.286073 -0.502945,-0.572464 -0.752926,-0.858863 z"
       style="color:#000000;font-style:normal;font-variant:normal;font-weight:normal;font-stretch:normal;font-size:medium;line-height:normal;font-family:sans-serif;font-variant-ligatures:normal;font-variant-position:normal;font-variant-caps:normal;font-variant-numeric:normal;font-variant-alternates:normal;font-feature-settings:normal;text-indent:0;text-align:start;text-decoration:none;text-decoration-line:none;text-decoration-style:solid;text-decoration-color:#000000;letter-spacing:normal;word-spacing:normal;text-transform:none;writing-mode:lr-tb;direction:ltr;text-orientation:mixed;dominant-baseline:auto;baseline-shift:baseline;text-anchor:start;white-space:normal;shape-padding:0;clip-rule:nonzero;display:inline;overflow:visible;visibility:visible;opacity:1;isolation:auto;mix-blend-mode:normal;color-interpolation:sRGB;color-interpolation-filters:linearRGB;solid-color:#000000;solid-opacity:1;vector-effect:none;fill:#212121;fill-opacity:1;fill-rule:nonzero;stroke:none;stroke-width:6.19988155;stroke-linecap:butt;stroke-linejoin:round;stroke-miterlimit:100;stroke-dasharray:none;stroke-dashoffset:0;stroke-opacity:1;color-rendering:auto;image-rendering:auto;shape-rendering:auto;text-rendering:auto;enable-background:accumulate" />
    <path
       d="m 176.81713,155.03731 h -26.3553 q -1.10196,0 -1.10196,-1.10197 V 149.252 q 0,-1.10197 1.10196,-1.10197 h 7.07093 V 95.990411 h -7.07093 q -1.10196,0 -1.10196,-1.101963 v -4.683346 q 0,-1.101964 1.10196,-1.101964 h 24.79419 q 15.24383,0 24.2432,8.81571 8.99937,8.723882 8.99937,24.059542 0,15.33566 -8.54022,24.24321 -8.54022,8.81571 -23.14124,8.81571 z M 165.522,148.15003 h 9.0912 q 25.52883,-0.18366 25.52883,-25.98798 0,-12.39709 -6.61178,-19.28436 -6.51995,-6.887279 -19.19254,-6.887279 H 165.522 Z"
       style="font-style:normal;font-variant:normal;font-weight:normal;font-stretch:normal;font-size:400px;line-height:1.25;font-family:Sanchez;-inkscape-font-specification:Sanchez;letter-spacing:0px;word-spacing:0px;fill:#ff6600;fill-opacity:1;stroke:none;stroke-width:0.22957578"
       id="path4547" />
    <path
       d="M 265.81219,155.03731 H 215.581 q -1.19379,0 -1.19379,-1.10197 V 149.252 q 0,-1.10197 1.19379,-1.10197 h 6.97911 V 95.990411 H 215.581 q -1.19379,0 -1.19379,-1.101963 v -4.683346 q 0,-1.101964 1.19379,-1.101964 h 21.94745 q 1.19379,0 1.19379,1.193794 v 4.499685 q 0,1.193794 -1.19379,1.193794 h -6.97911 v 52.159619 h 29.20204 v -8.99937 q 0,-1.10196 1.1938,-1.10196 h 4.95884 q 1.10196,0 1.10196,1.10196 v 14.69285 q 0,1.1938 -1.19379,1.1938 z"
       style="font-style:normal;font-variant:normal;font-weight:normal;font-stretch:normal;font-size:400px;line-height:1.25;font-family:Sanchez;-inkscape-font-specification:Sanchez;letter-spacing:0px;word-spacing:0px;fill:#ff6600;fill-opacity:1;stroke:none;stroke-width:0.22957578"
       id="path4549" />
  </g>
</svg>
